# xmcd CD database file
#
# Track frame offsets:
#	150
#	26342
#	48575
#	74767
#
# Disc length: 1292 seconds
#
# Revision: 1
# Processed by: cddbd v1.5.2PL0 Copyright (c) Steve Scherf et al.
# Submitted via: CDex 1.70beta2
#
DISCID=34050a04
DTITLE=KOTOKO - Chanter -キミの歌がとどいたら- 
DYEAR=2006
DGENRE=Game
TTITLE0=a piacere
TTITLE1=Harmony～僕の歌がとどいたなら～
TTITLE2=a piacere -instrumental-
TTITLE3=Harmony～僕の歌がとどいたなら～ -instrumental-
EXTD=YEAR: 2006
EXTT0=
EXTT1=
EXTT2=
EXTT3=
PLAYORDER=
